<?xml version="1.0" standalone="no"?>
<!DOCTYPE svg PUBLIC "-//W3C//DTD SVG 20010904//EN"
 "http://www.w3.org/TR/2001/REC-SVG-20010904/DTD/svg10.dtd">
<svg version="1.0" xmlns="http://www.w3.org/2000/svg"
 width="700.000000pt" height="700.000000pt" viewBox="0 0 700.000000 700.000000"
 preserveAspectRatio="xMidYMid meet">
<metadata>
Created by potrace 1.11, written by Peter Selinger 2001-2013
</metadata>
<g transform="translate(0.000000,700.000000) scale(0.100000,-0.100000)"
fill="#000000" stroke="none">
<path d="M3329 6726 c-2 -2 -51 -7 -109 -11 -57 -3 -107 -8 -110 -10 -3 -1
-27 -5 -55 -9 -226 -27 -510 -102 -770 -205 -74 -30 -334 -155 -380 -184 -11
-6 -71 -44 -135 -84 -63 -39 -128 -83 -145 -97 -16 -14 -33 -26 -37 -26 -4 0
-13 -6 -20 -13 -7 -7 -33 -28 -58 -47 -117 -90 -337 -297 -440 -415 -336 -382
-597 -888 -710 -1375 -12 -52 -24 -106 -26 -120 -36 -203 -39 -222 -51 -365
-14 -153 -5 -626 11 -654 2 -3 7 -31 10 -61 8 -71 30 -194 40 -228 3 -9 7 -29
10 -43 15 -90 95 -350 146 -474 116 -285 265 -544 449 -780 105 -136 127 -161
271 -305 358 -359 760 -610 1244 -777 138 -47 354 -104 456 -119 19 -2 46 -7
60 -9 14 -3 43 -7 65 -11 22 -3 51 -7 63 -9 154 -25 655 -26 787 -1 11 2 45 7
75 11 30 3 89 13 130 22 41 8 86 17 99 19 272 53 644 197 930 362 144 83 365
237 432 301 9 9 36 32 60 51 44 34 282 270 329 325 94 110 320 421 320 440 0
3 18 34 40 70 104 170 262 543 305 722 3 10 12 43 20 73 8 30 17 64 20 75 2
11 8 43 14 70 6 28 12 59 15 70 6 33 18 109 31 210 26 198 26 557 0 775 -12
97 -18 132 -35 220 -92 462 -273 885 -541 1262 -356 501 -868 902 -1434 1126
-155 61 -331 118 -423 137 -9 2 -39 9 -67 15 -89 20 -248 48 -320 56 -38 3
-83 8 -100 11 -39 5 -462 13 -466 9z"/>
</g>
</svg>
